# xmcd
#
# Track frame offsets:
#	150
#	14947
#	31710
#	57346
#	80521
#	103301
#	142765
#	155097
#	170035
#	192027
#	213401
#	233440
#	250381
#	269346
#	290770
#	300782
#
# Disc length: 4261 seconds
#
# Revision: 0
# Processed by: cddbd v1.4PL0 Copyright (c) Steve Scherf et al.
# Submitted via: dBpowerAMP V4.0
#
DISCID=df10a310
DTITLE=Jack Teagarden - I gotta right to sing the Blues
DYEAR=1900
DGENRE=Blues
TTITLE0=Baby, won't you please come home?
TTITLE1=My bucket's got a hole in it
TTITLE2=12th street rag
TTITLE3=That's for me
TTITLE4=Panama
TTITLE5=Bugle call rag
TTITLE6=I gotta right to sing the Blues
TTITLE7=Original Dixieland one step
TTITLE8=Riverboat shuffle
TTITLE9=Mis'ry and the blues
TTITLE10=Milenberg joys
TTITLE11=Meet me where they play the blues
TTITLE12=Davenport blues
TTITLE13=Blue funk
TTITLE14=Music to love by
TTITLE15=King Porter stomp
EXTD=
EXTT0=
EXTT1=
EXTT2=
EXTT3=
EXTT4=
EXTT5=
EXTT6=
EXTT7=
EXTT8=
EXTT9=
EXTT10=
EXTT11=
EXTT12=
EXTT13=
EXTT14=
EXTT15=
PLAYORDER=
